<?xml version="1.0" encoding="UTF-8" standalone="no"?>
<!DOCTYPE svg PUBLIC "-//W3C//DTD SVG 1.1//EN" "http://www.w3.org/Graphics/SVG/1.1/DTD/svg11.dtd">
<svg width="100%" height="100%" viewBox="0 0 128 128" version="1.1" xmlns="http://www.w3.org/2000/svg" xmlns:xlink="http://www.w3.org/1999/xlink" xml:space="preserve" xmlns:serif="http://www.serif.com/" style="fill-rule:evenodd;clip-rule:evenodd;stroke-linecap:round;stroke-linejoin:round;">
    <g transform="matrix(-0.69452,0,0,0.561097,375.03,-247.429)">
        <g>
            <path d="M447.834,669.099C367.203,612.068 367.203,612.068 367.203,469.49C401.759,469.49 413.278,469.49 447.834,440.975M447.834,669.099C528.465,612.068 528.465,612.068 528.465,469.49C493.909,469.49 482.39,469.49 447.834,440.975" style="fill:rgb(0,117,128);fill-rule:nonzero;stroke:white;stroke-width:1.6px;"/>
        </g>
    </g>
    <g transform="matrix(1,0,0,1,-2,0)">
        <g transform="matrix(0.336505,0,0,4.58726,35.2526,-132.83)">
            <rect x="25.995" y="37.676" width="23.774" height="8.72" style="fill:white;"/>
        </g>
        <g transform="matrix(0.336505,0,0,4.58726,79.2526,-132.83)">
            <rect x="25.995" y="37.676" width="23.774" height="8.72" style="fill:white;"/>
        </g>
        <g transform="matrix(2.0605e-17,0.336505,-2.75236,1.68533e-16,163.698,31.2526)">
            <rect x="25.995" y="37.676" width="23.774" height="8.72" style="fill:white;"/>
        </g>
        <g transform="matrix(2.0605e-17,0.336505,-2.75236,1.68533e-16,163.698,63.2526)">
            <rect x="25.995" y="37.676" width="23.774" height="8.72" style="fill:white;"/>
        </g>
        <g transform="matrix(0.8,0,0,0.8,15.2,12)">
            <circle cx="76" cy="60" r="20" style="fill:none;stroke:white;stroke-width:10px;stroke-linecap:butt;"/>
        </g>
    </g>
</svg>
